<mxfile host="app.diagrams.net" modified="2023-06-09T12:08:26.794Z" agent="Mozilla/5.0 (Windows NT 10.0; Win64; x64) AppleWebKit/537.36 (KHTML, like Gecko) Chrome/112.0.0.0 Safari/537.36 OPR/98.0.0.0" etag="XOvmpfenQWfJXUfLsPKG" version="21.3.8" type="github">
  <diagram name="Page-1" id="VDscV2opVwdv3jfRVgCw">
    <mxGraphModel dx="1153" dy="1836" grid="1" gridSize="10" guides="1" tooltips="1" connect="1" arrows="1" fold="1" page="1" pageScale="1" pageWidth="850" pageHeight="1100" math="0" shadow="0">
      <root>
        <mxCell id="0" />
        <mxCell id="1" parent="0" />
        <mxCell id="TVmQpUyHfUPauZaXectK-1" value="" style="ellipse;whiteSpace=wrap;html=1;aspect=fixed;" vertex="1" parent="1">
          <mxGeometry x="140" y="60" width="650" height="650" as="geometry" />
        </mxCell>
        <mxCell id="TVmQpUyHfUPauZaXectK-2" value="" style="shape=cylinder3;whiteSpace=wrap;html=1;boundedLbl=1;backgroundOutline=1;size=15;" vertex="1" parent="1">
          <mxGeometry x="570" y="530" width="100" height="60" as="geometry" />
        </mxCell>
        <mxCell id="TVmQpUyHfUPauZaXectK-3" value="Actor" style="shape=umlActor;verticalLabelPosition=bottom;verticalAlign=top;html=1;outlineConnect=0;" vertex="1" parent="1">
          <mxGeometry x="605" y="440" width="30" height="60" as="geometry" />
        </mxCell>
        <mxCell id="TVmQpUyHfUPauZaXectK-4" value="" style="whiteSpace=wrap;html=1;aspect=fixed;" vertex="1" parent="1">
          <mxGeometry x="400" y="550" width="80" height="80" as="geometry" />
        </mxCell>
        <mxCell id="TVmQpUyHfUPauZaXectK-5" value="Actor" style="shape=umlActor;verticalLabelPosition=bottom;verticalAlign=top;html=1;outlineConnect=0;" vertex="1" parent="1">
          <mxGeometry x="425" y="520" width="30" height="60" as="geometry" />
        </mxCell>
        <mxCell id="TVmQpUyHfUPauZaXectK-6" value="" style="shape=cube;whiteSpace=wrap;html=1;boundedLbl=1;backgroundOutline=1;darkOpacity=0.05;darkOpacity2=0.1;size=20;" vertex="1" parent="1">
          <mxGeometry x="360" y="80" width="135" height="100" as="geometry" />
        </mxCell>
        <mxCell id="TVmQpUyHfUPauZaXectK-7" value="" style="shape=cylinder3;whiteSpace=wrap;html=1;boundedLbl=1;backgroundOutline=1;size=15;" vertex="1" parent="1">
          <mxGeometry x="395" width="60" height="100" as="geometry" />
        </mxCell>
        <mxCell id="TVmQpUyHfUPauZaXectK-8" value="" style="triangle;whiteSpace=wrap;html=1;rotation=-90;" vertex="1" parent="1">
          <mxGeometry x="395" y="-50" width="60" height="80" as="geometry" />
        </mxCell>
        <mxCell id="TVmQpUyHfUPauZaXectK-9" value="" style="curved=1;endArrow=classic;html=1;rounded=0;exitX=0.145;exitY=0;exitDx=0;exitDy=4.35;exitPerimeter=0;" edge="1" parent="1" source="TVmQpUyHfUPauZaXectK-2">
          <mxGeometry width="50" height="50" relative="1" as="geometry">
            <mxPoint x="480" y="460" as="sourcePoint" />
            <mxPoint x="430" y="190" as="targetPoint" />
            <Array as="points">
              <mxPoint x="360" y="460" />
              <mxPoint x="610" y="370" />
              <mxPoint x="440" y="230" />
            </Array>
          </mxGeometry>
        </mxCell>
        <mxCell id="TVmQpUyHfUPauZaXectK-11" value="" style="ellipse;whiteSpace=wrap;html=1;" vertex="1" parent="1">
          <mxGeometry x="670" y="450" width="70" height="60" as="geometry" />
        </mxCell>
        <mxCell id="TVmQpUyHfUPauZaXectK-12" value="&lt;h1&gt;Temple&lt;/h1&gt;" style="text;html=1;strokeColor=none;fillColor=none;spacing=5;spacingTop=-20;whiteSpace=wrap;overflow=hidden;rounded=0;" vertex="1" parent="1">
          <mxGeometry x="455" y="10" width="90" height="40" as="geometry" />
        </mxCell>
        <mxCell id="TVmQpUyHfUPauZaXectK-13" value="&lt;h1&gt;City&lt;/h1&gt;&lt;div&gt;&lt;br&gt;&lt;/div&gt;" style="text;html=1;strokeColor=none;fillColor=none;spacing=5;spacingTop=-20;whiteSpace=wrap;overflow=hidden;rounded=0;" vertex="1" parent="1">
          <mxGeometry x="605" y="370" width="55" height="30" as="geometry" />
        </mxCell>
        <mxCell id="TVmQpUyHfUPauZaXectK-14" value="&lt;h1&gt;Graveyard&lt;/h1&gt;&lt;div&gt;&lt;br&gt;&lt;/div&gt;" style="text;html=1;strokeColor=none;fillColor=none;spacing=5;spacingTop=-20;whiteSpace=wrap;overflow=hidden;rounded=0;" vertex="1" parent="1">
          <mxGeometry x="360" y="480" width="170" height="40" as="geometry" />
        </mxCell>
        <mxCell id="TVmQpUyHfUPauZaXectK-15" value="&lt;h1&gt;Arena&lt;/h1&gt;&lt;div&gt;&lt;br&gt;&lt;/div&gt;" style="text;html=1;strokeColor=none;fillColor=none;spacing=5;spacingTop=-20;whiteSpace=wrap;overflow=hidden;rounded=0;" vertex="1" parent="1">
          <mxGeometry x="700" y="410" width="80" height="40" as="geometry" />
        </mxCell>
      </root>
    </mxGraphModel>
  </diagram>
</mxfile>
